<svg width="200" height="201" viewBox="0 0 200 201" fill="none" xmlns="http://www.w3.org/2000/svg">
<path d="M26.5144 37.5523C15.5102 43.7743 8.67847 55.4984 8.67847 68.1407V132.858C8.67847 145.501 15.5175 157.225 26.5217 163.454L68.9517 187.468L91.9738 200.5V145.633L84.1431 141.203L56.4269 125.512V75.4793L84.1431 59.7884L91.9738 55.3588V0.499512L68.9517 13.5312L26.5144 37.5523ZM76.5474 46.3748L42.4403 65.6799C41.5515 66.1794 41.0005 67.127 41.0005 68.1481V132.866C41.0005 133.887 41.5515 134.827 42.4403 135.327L76.5474 154.632V174.047L34.1174 150.033C27.9395 146.536 24.1049 139.962 24.1049 132.866V68.1481C24.1049 61.0519 27.9395 54.4773 34.1174 50.9807L76.5474 26.9595V46.3748ZM190.843 68.1407V132.858C190.843 145.501 184.004 157.225 172.999 163.454L130.569 187.468L107.547 200.5V145.633L115.378 141.203L143.094 125.512V116.425H158.521V132.858C158.521 133.879 157.97 134.82 157.081 135.319L122.974 154.624V174.04L165.404 150.026C171.582 146.529 175.416 139.954 175.416 132.858V68.1407C175.416 61.0446 171.582 54.47 165.404 50.9733L122.974 26.9522V46.3674L157.081 65.6725C157.97 66.172 158.521 67.1197 158.521 68.1407V84.5736H143.094V75.4867L115.378 59.7958L107.547 55.3662V0.499512L130.569 13.5312L172.999 37.5523C184.004 43.7817 190.835 55.5058 190.835 68.1481L190.843 68.1407Z" fill="#21D192"/>
</svg>
